<svg xmlns="http://www.w3.org/2000/svg" viewBox="0 0 100 100">
  <rect width="100" height="100" rx="14" fill="#C8373A"/>
  <circle cx="15" cy="20" r="6" fill="white"/>
  <rect x="11" y="24" width="8" height="64" rx="2" fill="white"/>
  <circle cx="85" cy="20" r="6" fill="white"/>
  <rect x="81" y="24" width="8" height="64" rx="2" fill="white"/>
  <rect x="19" y="36" width="62" height="5" rx="1.5" fill="white"/>
  <rect x="19" y="66" width="62" height="5" rx="1.5" fill="white"/>
  <polygon points="31,26 29,36 33,36" fill="white"/>
  <rect x="29" y="36" width="4" height="35" rx="1" fill="white"/>
  <polygon points="42,26 40,36 44,36" fill="white"/>
  <rect x="40" y="36" width="4" height="35" rx="1" fill="white"/>
  <polygon points="50,22 48,36 52,36" fill="white"/>
  <rect x="48" y="36" width="4" height="35" rx="1" fill="white"/>
  <polygon points="60,26 58,36 62,36" fill="white"/>
  <rect x="58" y="36" width="4" height="35" rx="1" fill="white"/>
  <polygon points="71,26 69,36 73,36" fill="white"/>
  <rect x="69" y="36" width="4" height="35" rx="1" fill="white"/>
</svg>
